<svg width="64" height="64" viewBox="0 0 64 64" fill="none" xmlns="http://www.w3.org/2000/svg">
<path d="M9.43314 38.9335C7.43314 38.9335 5.74425 38.2399 4.36647 36.8528C2.98869 35.4657 2.2998 33.7815 2.2998 31.8001C2.2998 29.8188 2.99336 28.1346 4.38047 26.7475C5.76758 25.3604 7.4518 24.6668 9.43314 24.6668V16.1001C9.43314 15.0335 9.83314 14.1001 10.6331 13.3001C11.4331 12.5001 12.3665 12.1001 13.4331 12.1001H24.8665C24.8665 10.1001 25.56 8.41124 26.9471 7.03346C28.3342 5.65569 30.0185 4.9668 31.9998 4.9668C33.9811 4.9668 35.6654 5.66035 37.0525 7.04746C38.4396 8.43458 39.1331 10.1188 39.1331 12.1001H50.5665C51.6331 12.1001 52.5665 12.5001 53.3665 13.3001C54.1665 14.1001 54.5665 15.0335 54.5665 16.1001V24.6668C56.5665 24.6668 58.2554 25.3604 59.6331 26.7475C61.0109 28.1346 61.6998 29.8188 61.6998 31.8001C61.6998 33.7815 61.0062 35.4657 59.6191 36.8528C58.232 38.2399 56.5478 38.9335 54.5665 38.9335V52.3668C54.5665 53.4335 54.1665 54.3668 53.3665 55.1668C52.5665 55.9668 51.6331 56.3668 50.5665 56.3668H13.4331C12.3665 56.3668 11.4331 55.9668 10.6331 55.1668C9.83314 54.3668 9.43314 53.4335 9.43314 52.3668V38.9335ZM22.9778 32.1715C23.744 32.1715 24.3907 31.9026 24.9178 31.3648C25.4449 30.8275 25.7085 30.1728 25.7085 29.4008C25.7085 28.6292 25.4398 27.9799 24.9025 27.4528C24.3647 26.9257 23.7127 26.6621 22.9465 26.6621C22.1802 26.6621 21.5309 26.9306 20.9985 27.4675C20.466 28.0039 20.1998 28.6615 20.1998 29.4401C20.1998 30.2068 20.4711 30.8537 21.0138 31.3808C21.5569 31.9079 22.2116 32.1715 22.9778 32.1715ZM41.0531 32.1715C41.8194 32.1715 42.4687 31.9026 43.0011 31.3648C43.5336 30.8275 43.7998 30.1728 43.7998 29.4008C43.7998 28.6292 43.5285 27.9799 42.9858 27.4528C42.4427 26.9257 41.788 26.6621 41.0218 26.6621C40.2556 26.6621 39.6089 26.9306 39.0818 27.4675C38.5547 28.0039 38.2911 28.6615 38.2911 29.4401C38.2911 30.2068 38.5598 30.8537 39.0971 31.3808C39.6349 31.9079 40.2869 32.1715 41.0531 32.1715ZM23.0711 45.0001H40.9445C41.5338 45.0001 42.0278 44.7984 42.4265 44.3948C42.8251 43.9912 43.0245 43.491 43.0245 42.8941C43.0245 42.3021 42.8251 41.8092 42.4265 41.4155C42.0278 41.0217 41.5338 40.8248 40.9445 40.8248H23.0711C22.4774 40.8248 21.9796 41.025 21.5778 41.4255C21.176 41.8264 20.9751 42.3228 20.9751 42.9148C20.9751 43.5068 21.176 44.0024 21.5778 44.4015C21.9796 44.8006 22.4774 45.0001 23.0711 45.0001ZM13.9751 51.8248H50.0245V16.6421H13.9751V51.8248Z" fill="#FF4C02"/>
</svg>
