<svg width="64" height="64" viewBox="0 0 64 64" fill="none" xmlns="http://www.w3.org/2000/svg">
<path d="M12.1436 56.3988C10.9169 56.3988 9.85334 55.9483 8.9529 55.0474C8.05201 54.147 7.60156 53.0834 7.60156 51.8568V12.1434C7.60156 10.9123 8.05201 9.845 8.9529 8.94145C9.85334 8.03745 10.9169 7.58545 12.1436 7.58545H51.8569C53.088 7.58545 54.1553 8.03745 55.0589 8.94145C55.9629 9.845 56.4149 10.9123 56.4149 12.1434V51.8568C56.4149 53.0834 55.9629 54.147 55.0589 55.0474C54.1553 55.9483 53.088 56.3988 51.8569 56.3988H12.1436ZM12.1436 22.7308H51.8569V12.1434H12.1436V22.7308ZM12.1436 37.2694H51.8569V26.7308H12.1436V37.2694ZM12.1436 51.8568H51.8569V41.2694H12.1436V51.8568ZM18.2669 19.3814C17.7189 19.3814 17.264 19.1939 16.9022 18.8188C16.5405 18.4437 16.3596 17.9823 16.3596 17.4348C16.3596 16.8872 16.5431 16.4294 16.9102 16.0614C17.2778 15.693 17.7378 15.5088 18.2902 15.5088C18.8378 15.5088 19.2982 15.6957 19.6716 16.0694C20.0453 16.4432 20.2322 16.9061 20.2322 17.4581C20.2322 18.0061 20.0416 18.4637 19.6602 18.8308C19.2789 19.1979 18.8145 19.3814 18.2669 19.3814ZM18.2669 33.9361C17.7189 33.9361 17.2613 33.7488 16.8942 33.3741C16.5271 32.999 16.3436 32.537 16.3436 31.9881C16.3436 31.4397 16.5311 30.9819 16.9062 30.6148C17.2809 30.2477 17.7422 30.0641 18.2902 30.0641C18.8378 30.0641 19.2982 30.2514 19.6716 30.6261C20.0453 31.0012 20.2322 31.4632 20.2322 32.0121C20.2322 32.5606 20.0416 33.0183 19.6602 33.3854C19.2789 33.7526 18.8145 33.9361 18.2669 33.9361ZM18.2669 48.4914C17.7189 48.4914 17.264 48.3039 16.9022 47.9288C16.5405 47.5541 16.3596 47.0897 16.3596 46.5354C16.3596 45.9817 16.5431 45.5237 16.9102 45.1614C17.2778 44.7997 17.7378 44.6188 18.2902 44.6188C18.8378 44.6188 19.2982 44.8026 19.6716 45.1701C20.0453 45.5372 20.2322 46.0001 20.2322 46.5588C20.2322 47.113 20.0416 47.5737 19.6602 47.9408C19.2789 48.3079 18.8145 48.4914 18.2669 48.4914Z" fill="#FF4C02"/>
</svg>
