<svg width="64" height="64" viewBox="0 0 64 64" fill="none" xmlns="http://www.w3.org/2000/svg">
<path d="M29.8636 40.0954H34.1356C34.4898 40.0954 34.7911 39.9539 35.0396 39.6708C35.2885 39.3877 35.3685 39.0761 35.2796 38.7361L33.8282 30.3814C34.7274 29.953 35.4411 29.3523 35.9696 28.5794C36.4976 27.8065 36.7616 26.9468 36.7616 26.0001C36.7616 24.6832 36.2969 23.5603 35.3676 22.6314C34.4378 21.7025 33.3138 21.2381 31.9956 21.2381C30.6774 21.2381 29.5547 21.7025 28.6276 22.6314C27.7009 23.5603 27.2376 24.6832 27.2376 26.0001C27.2376 26.9468 27.5016 27.8065 28.0296 28.5794C28.558 29.3523 29.2718 29.9539 30.1709 30.3841L28.7356 38.7361C28.636 39.0774 28.7105 39.3894 28.9589 39.6721C29.2069 39.9543 29.5085 40.0954 29.8636 40.0954ZM31.9996 58.7828C31.7311 58.7828 31.4798 58.7579 31.2456 58.7081C31.0109 58.6583 30.7816 58.5837 30.5576 58.4841C24.3265 56.3952 19.3871 52.6025 15.7396 47.1061C12.0916 41.6092 10.2676 35.6159 10.2676 29.1261V16.1781C10.2676 15.2057 10.5385 14.3265 11.0802 13.5408C11.622 12.755 12.3347 12.1921 13.2182 11.8521L30.4082 5.43343C30.9505 5.23432 31.4809 5.13477 31.9996 5.13477C32.5182 5.13477 33.0487 5.23432 33.5909 5.43343L50.7809 11.8521C51.6645 12.1921 52.3798 12.755 52.9269 13.5408C53.474 14.3265 53.7476 15.2057 53.7476 16.1781V29.1261C53.7476 35.6159 51.9209 41.6092 48.2676 47.1061C44.6147 52.6025 39.6727 56.3952 33.4416 58.4841C33.2176 58.5837 32.9882 58.6583 32.7536 58.7081C32.5194 58.7579 32.268 58.7828 31.9996 58.7828ZM31.9996 54.3394C37.0574 52.5972 41.1869 49.4057 44.3882 44.7648C47.5891 40.1234 49.1896 34.9145 49.1896 29.1381V16.1781L31.9996 9.69277L14.8096 16.1861V29.1308C14.8096 34.9121 16.41 40.1234 19.6109 44.7648C22.8122 49.4057 26.9418 52.5972 31.9996 54.3394Z" fill="#FF4C02"/>
</svg>
