<svg xmlns="http://www.w3.org/2000/svg" width="138" height="53" viewBox="0 0 138 53" fill="none"><path d="M3.84669 7.65938C5.97116 7.65938 7.69338 5.94477 7.69338 3.82969C7.69338 1.71461 5.97116 0 3.84669 0C1.72222 0 0 1.71461 0 3.82969C0 5.94477 1.72222 7.65938 3.84669 7.65938Z" fill="#FF4100"></path><path d="M109.931 7.65938C112.056 7.65938 113.778 5.94477 113.778 3.82969C113.778 1.71461 112.056 0 109.931 0C107.807 0 106.084 1.71461 106.084 3.82969C106.084 5.94477 107.807 7.65938 109.931 7.65938Z" fill="#FF4100"></path><path d="M0 11.6088L7.69338 10.6514V36.6214H0V11.6088Z" fill="white"></path><path d="M14.5454 23.8766C14.5454 16.277 20.7362 10.4727 28.6099 10.4727C30.9539 10.4727 33.2379 10.9514 35.3416 11.849L34.2597 18.3714C32.4566 17.414 30.7135 16.9353 29.0306 16.9353C24.8233 16.9353 21.9383 19.987 21.9383 23.8766C21.9383 27.7063 24.8233 30.8179 29.0907 30.8179C30.9539 30.8179 32.7571 30.2793 34.6203 29.2621L35.582 35.7845C33.4182 36.8018 31.1343 37.3403 28.67 37.3403C20.6761 37.3403 14.5454 31.4761 14.5454 23.8766Z" fill="white"></path><path d="M63.4101 27.5267L65.5739 33.0918C62.5086 35.6648 58.3013 37.3403 53.9737 37.3403C45.7995 37.3403 39.7891 31.4761 39.7891 23.9364C39.7891 16.3967 45.6793 10.4727 53.553 10.4727C60.2246 10.4727 65.6941 14.8409 66.3553 22.5601L47.7229 28.544C49.0452 30.4588 51.2089 31.5958 54.0338 31.5958C56.979 31.5958 60.1044 30.399 63.4101 27.5267ZM46.5208 23.0987L58.9624 19.0895C57.8805 17.2345 55.9572 16.1574 53.6732 16.1574C49.7664 16.1574 46.9415 19.0296 46.5208 23.0987Z" fill="white"></path><path d="M97.9706 21.0043V36.6223H90.2772V21.9617C90.2772 18.8501 88.414 17.0549 85.7093 17.0549C82.8242 17.0549 80.8408 19.0895 80.8408 22.2609V36.6223H73.2075V11.6096L80.6004 10.712V13.704C82.4636 11.6096 85.1683 10.4727 88.3539 10.4727C94.4244 10.4727 97.9706 14.6015 97.9706 21.0043Z" fill="white"></path><path d="M106.084 11.6088L113.778 10.6514V36.6214H106.084V11.6088Z" fill="white"></path><path d="M131.388 17.2939V26.8681C131.388 29.0821 132.59 30.3986 134.754 30.3986C135.836 30.3986 137.098 30.0396 138 29.7404V36.1431C136.677 36.6817 134.934 37.1006 132.891 37.1006C126.82 37.1006 123.755 33.5102 123.755 27.8854V17.2939H119.788L120.75 11.1305H123.755V6.4032L131.388 2.51367V11.1305H138V17.2939H131.388Z" fill="white"></path><path d="M31.4346 51.8805V44.3408H33.6584C36.1227 44.3408 37.7455 45.8368 37.7455 48.1107C37.7455 50.3846 36.1227 51.8805 33.7185 51.8805H31.4346ZM32.4563 45.1786V51.0428H33.6584C35.4616 51.0428 36.6637 49.846 36.6637 48.1107C36.6637 46.3753 35.4616 45.1786 33.5983 45.1786H32.4563Z" fill="white"></path><path d="M38.8274 46.9137C39.1279 46.7342 39.789 46.5547 40.6906 46.5547C42.1932 46.5547 42.9145 47.2728 42.9145 48.5892V51.9402H42.0129V51.3418C42.0129 51.1024 42.073 50.9229 42.073 50.9229C42.0129 51.0426 41.4119 52.0599 40.2098 52.0599C39.2481 52.0599 38.5269 51.4615 38.5269 50.5041C38.5269 49.2474 39.7891 48.5892 41.9528 48.8884V48.649C41.9528 47.7515 41.4119 47.3924 40.5704 47.3924C39.8492 47.3924 39.188 47.6318 38.8274 47.8113V46.9137ZM41.9528 49.5466C40.2098 49.2474 39.4885 49.7261 39.4885 50.4442C39.4885 50.9229 39.8492 51.2221 40.33 51.2221C41.2316 51.2221 41.9528 50.3245 41.9528 49.5466Z" fill="white"></path><path d="M44.8381 46.6144V45.0586H45.7998V46.6144H47.3625V47.3923H45.7998V50.0851C45.7998 50.8031 46.1604 51.1023 46.5811 51.1023C46.8816 51.1023 47.3024 50.9826 47.5428 50.863V51.7007C47.3024 51.8204 46.8816 51.9401 46.3407 51.9401C45.5593 51.9401 44.778 51.581 44.778 50.3843V47.3923H43.9365V46.6144H44.8381Z" fill="white"></path><path d="M48.6243 46.9137C48.9248 46.7342 49.5859 46.5547 50.4875 46.5547C51.9901 46.5547 52.7114 47.2728 52.7114 48.5892V51.9402H51.8098V51.3418C51.8098 51.1024 51.8699 50.9229 51.8699 50.9229C51.8098 51.0426 51.2087 52.0599 50.0067 52.0599C49.045 52.0599 48.3237 51.4615 48.3237 50.5041C48.3237 49.2474 49.5859 48.5892 51.7497 48.8884V48.649C51.7497 47.7515 51.2087 47.3924 50.3673 47.3924C49.646 47.3924 48.9849 47.6318 48.6243 47.8113V46.9137ZM51.6896 49.5466C49.9466 49.2474 49.2253 49.7261 49.2253 50.4442C49.2253 50.9229 49.5859 51.2221 50.0668 51.2221C51.0284 51.2221 51.6896 50.3245 51.6896 49.5466Z" fill="white"></path><path d="M58.3615 49.6666C57.3999 49.3674 56.7988 48.9485 56.7988 47.9911C56.7988 47.0935 57.5802 46.4951 58.6621 46.4951C59.203 46.4951 59.8041 46.6148 60.1647 46.7943V47.6919C59.8041 47.5124 59.2631 47.3329 58.7823 47.3329C58.1812 47.3329 57.7004 47.5722 57.7004 47.9911C57.7004 48.41 58.061 48.5895 58.7823 48.8288C59.9243 49.1879 60.4652 49.6067 60.4652 50.5043C60.4652 51.4617 59.6838 52.0003 58.5419 52.0003C57.8807 52.0003 57.2196 51.8806 56.7988 51.6413V50.7437C57.3398 50.983 58.0009 51.1626 58.4818 51.1626C59.0227 51.1626 59.5035 50.983 59.5035 50.5043C59.5035 50.0855 59.1429 49.9059 58.3615 49.6666Z" fill="white"></path><path d="M61.6672 46.9137C61.9677 46.7342 62.6289 46.5547 63.5305 46.5547C65.0331 46.5547 65.7543 47.2728 65.7543 48.5892V51.9402H64.8528V51.3418C64.8528 51.1024 64.9129 50.9229 64.9129 50.9229C64.8528 51.0426 64.2517 52.0599 63.0496 52.0599C62.088 52.0599 61.3667 51.4615 61.3667 50.5041C61.3667 49.2474 62.6289 48.5892 64.7927 48.8884V48.649C64.7927 47.7515 64.2517 47.3924 63.4103 47.3924C62.689 47.3924 62.0278 47.6318 61.6672 47.8113V46.9137ZM64.7927 49.5466C63.0496 49.2474 62.3284 49.7261 62.3284 50.4442C62.3284 50.9229 62.689 51.2221 63.1698 51.2221C64.0714 51.2221 64.7927 50.3245 64.7927 49.5466Z" fill="white"></path><path d="M71.7647 46.6143L69.4207 51.9998H68.8797L66.5356 46.6143H67.5574C68.0984 47.8709 68.6994 49.2472 69.1201 50.4439C69.601 49.2472 70.1419 47.8709 70.6829 46.6143H71.7647Z" fill="white"></path><path d="M77.2342 48.9484C77.2342 49.1878 77.2342 49.3673 77.2342 49.487H73.3274C73.3875 50.5043 74.0486 51.1625 75.1906 51.1625C75.9119 51.1625 76.6331 50.9231 77.114 50.6838V51.5814C76.6932 51.8207 75.972 52.0601 75.1305 52.0601C73.4476 52.0601 72.3657 50.9231 72.3657 49.3075C72.3657 47.7517 73.5077 46.5549 74.9502 46.5549C76.3927 46.495 77.2342 47.6918 77.2342 48.9484ZM74.83 47.3328C73.9284 47.3328 73.3875 48.0509 73.2673 48.7689H76.2124C76.2725 48.0509 75.7316 47.3328 74.83 47.3328Z" fill="white"></path><path d="M79.8186 49.6666C78.8569 49.3674 78.2559 48.9485 78.2559 47.9911C78.2559 47.0935 79.0372 46.4951 80.1191 46.4951C80.66 46.4951 81.2611 46.6148 81.6217 46.7943V47.6919C81.2611 47.5124 80.7201 47.3329 80.2393 47.3329C79.6383 47.3329 79.1574 47.5722 79.1574 47.9911C79.1574 48.41 79.5181 48.5895 80.2393 48.8288C81.3813 49.1879 81.9222 49.6067 81.9222 50.5043C81.9222 51.4617 81.1409 52.0003 79.9989 52.0003C79.3377 52.0003 78.6766 51.8806 78.2559 51.6413V50.7437C78.7968 50.983 79.458 51.1626 79.9388 51.1626C80.4797 51.1626 80.9606 50.983 80.9606 50.5043C80.9606 50.0855 80.5999 49.9059 79.8186 49.6666Z" fill="white"></path><path d="M86.0698 44.3408H87.0315V50.3845C87.0315 50.9231 87.2118 51.1625 87.6325 51.1625C87.873 51.1625 88.0533 51.1026 88.1134 51.1026V51.9404C88.0533 51.9404 87.8129 52.06 87.3921 52.06C86.6108 52.06 86.0698 51.6412 86.0698 50.5641V44.3408Z" fill="white"></path><path d="M90.3372 46.6143V51.8801H89.3755V46.6143H90.3372Z" fill="white"></path><path d="M96.5279 46.6143L94.1838 51.9998H93.6429L91.2988 46.6143H92.3206C92.8616 47.8709 93.4626 49.2472 93.8833 50.4439C94.3642 49.2472 94.9051 47.8709 95.446 46.6143H96.5279Z" fill="white"></path><path d="M101.997 48.9484C101.997 49.1878 101.997 49.3673 101.997 49.487H98.0906C98.1507 50.5043 98.8118 51.1625 99.9538 51.1625C100.675 51.1625 101.396 50.9231 101.877 50.6838V51.5814C101.456 51.8207 100.735 52.0601 99.8937 52.0601C98.2108 52.0601 97.1289 50.9231 97.1289 49.3075C97.1289 47.7517 98.2709 46.5549 99.7134 46.5549C101.156 46.495 101.997 47.6918 101.997 48.9484ZM99.5932 47.3328C98.6916 47.3328 98.1507 48.0509 98.0305 48.7689H100.976C101.036 48.0509 100.495 47.3328 99.5932 47.3328Z" fill="white"></path><path d="M104.582 49.6666C103.62 49.3674 103.019 48.9485 103.019 47.9911C103.019 47.0935 103.8 46.4951 104.882 46.4951C105.423 46.4951 106.024 46.6148 106.385 46.7943V47.6919C106.024 47.5124 105.483 47.3329 105.002 47.3329C104.401 47.3329 103.921 47.5722 103.921 47.9911C103.921 48.41 104.281 48.5895 105.002 48.8288C106.144 49.1879 106.685 49.6067 106.685 50.5043C106.685 51.4617 105.904 52.0003 104.762 52.0003C104.101 52.0003 103.44 51.8806 103.019 51.6413V50.7437C103.56 50.983 104.221 51.1626 104.702 51.1626C105.243 51.1626 105.724 50.983 105.724 50.5043C105.724 50.0855 105.363 49.9059 104.582 49.6666Z" fill="white"></path><path d="M89.8563 45.8363C90.1219 45.8363 90.3372 45.622 90.3372 45.3576C90.3372 45.0932 90.1219 44.8789 89.8563 44.8789C89.5908 44.8789 89.3755 45.0932 89.3755 45.3576C89.3755 45.622 89.5908 45.8363 89.8563 45.8363Z" fill="white"></path><path d="M108.308 51.9408C108.574 51.9408 108.789 51.7265 108.789 51.4621C108.789 51.1977 108.574 50.9834 108.308 50.9834C108.043 50.9834 107.828 51.1977 107.828 51.4621C107.828 51.7265 108.043 51.9408 108.308 51.9408Z" fill="#FF4100"></path></svg>