<svg width="64" height="64" viewBox="0 0 64 64" fill="none" xmlns="http://www.w3.org/2000/svg">
<path d="M20.1999 14.9854V11.5854C20.1999 10.4329 20.6066 9.44627 21.4199 8.62538C22.2332 7.80449 23.2184 7.39404 24.3752 7.39404H39.4912C40.6481 7.39404 41.6332 7.80449 42.4466 8.62538C43.2599 9.44627 43.6666 10.4329 43.6666 11.5854V14.9854H47.9332C48.7972 14.9854 49.5997 15.1983 50.3406 15.624C51.0815 16.0494 51.6235 16.6718 51.9666 17.4914L58.4679 32.91C58.7221 33.4292 58.8879 33.9612 58.9652 34.506C59.0426 35.0509 59.0812 35.5958 59.0812 36.1407V49.19C59.0812 50.45 58.6377 51.522 57.7506 52.406C56.8635 53.29 55.7877 53.732 54.5232 53.732H9.47657C8.21657 53.732 7.14457 53.29 6.26057 52.406C5.37657 51.522 4.93457 50.45 4.93457 49.19V36.1407C4.93457 35.5958 4.97324 35.0509 5.05057 34.506C5.1279 33.9612 5.28835 33.4292 5.5319 32.91L11.8999 17.4914C12.243 16.6718 12.785 16.0494 13.5259 15.624C14.2668 15.1983 15.0692 14.9854 15.9332 14.9854H20.1999ZM24.3752 14.9854H39.4912V11.5854H24.3752V14.9854ZM19.0766 32.7334V31.6C19.0766 31.0334 19.2695 30.5583 19.6552 30.1747C20.0406 29.7916 20.5183 29.6 21.0886 29.6C21.6583 29.6 22.1335 29.7916 22.5139 30.1747C22.8943 30.5583 23.0846 31.0334 23.0846 31.6V32.7334H40.9152V31.6C40.9152 31.0334 41.1095 30.5583 41.4979 30.1747C41.8859 29.7916 42.3648 29.6 42.9346 29.6C43.5048 29.6 43.9788 29.7916 44.3566 30.1747C44.7343 30.5583 44.9232 31.0334 44.9232 31.6V32.7334H53.3899L47.8892 19.5434H16.1112L10.6099 32.7334H19.0766ZM19.0766 36.7334H9.47657V49.19H54.5232V36.7334H44.9232V37.8667C44.9232 38.4334 44.7303 38.9083 44.3446 39.2914C43.9592 39.6749 43.4815 39.8667 42.9112 39.8667C42.3415 39.8667 41.8663 39.6749 41.4859 39.2914C41.1055 38.9083 40.9152 38.4334 40.9152 37.8667V36.7334H23.0846V37.8667C23.0846 38.4334 22.8903 38.9083 22.5019 39.2914C22.1139 39.6749 21.635 39.8667 21.0652 39.8667C20.495 39.8667 20.021 39.6749 19.6432 39.2914C19.2655 38.9083 19.0766 38.4334 19.0766 37.8667V36.7334Z" fill="#FF4C02"/>
</svg>
